<svg width="32" height="32" viewBox="0 0 32 32" fill="none" xmlns="http://www.w3.org/2000/svg">
<path opacity="0.5" fill-rule="evenodd" clip-rule="evenodd" d="M1 16C1 7.71573 7.71573 1 16 1C24.2843 1 31 7.71573 31 16C31 24.2843 24.2843 31 16 31C7.71573 31 1 24.2843 1 16Z" stroke="white"/>
<path d="M13.7497 24.4421H16.8717V16.6636H19.4823L19.8766 13.6374H16.8717V11.6981C16.8717 10.8244 17.1168 10.2277 18.3741 10.2277H19.9831V7.51052C19.7061 7.47855 18.7577 7.39331 17.6496 7.39331C15.3267 7.39331 13.7497 8.81049 13.7497 11.3998V13.6374H11.1284V16.6636H13.7497V24.4421Z" fill="white"/>
</svg>
