<svg width="933" height="332" viewBox="0 0 933 332" fill="none" xmlns="http://www.w3.org/2000/svg">
<path d="M133.36 122.64V121.64H132.36V122.64H133.36ZM259.72 122.64H260.72V121.64H259.72V122.64ZM225.16 229.56L224.464 228.842L225.16 229.56ZM39.04 225.24L38.3329 225.947L38.3396 225.954L39.04 225.24ZM38.68 39.12L37.9729 38.4129L37.9696 38.4162L38.68 39.12ZM197.08 16.8L196.603 17.6787L197.08 16.8ZM242.8 59.64L243.299 60.5064L244.19 59.9933L243.652 59.1172L242.8 59.64ZM200.32 84.12L199.455 84.6226L199.956 85.4838L200.819 84.9864L200.32 84.12ZM172.96 58.92L173.428 58.0362L172.96 58.92ZM73.24 72.96L73.9471 73.6671L73.9526 73.6617L73.9579 73.6561L73.24 72.96ZM73.6 191.4L72.8929 192.107L72.8984 192.113L73.6 191.4ZM183.76 201.84L183.209 201.006L183.76 201.84ZM209.68 166.56L210.637 166.849L211.026 165.56H209.68V166.56ZM133.36 166.56H132.36V167.56H133.36V166.56ZM133.36 123.64H259.72V121.64H133.36V123.64ZM258.72 122.64V142.08H260.72V122.64H258.72ZM258.72 142.08C258.72 177.846 247.285 206.734 224.464 228.842L225.856 230.278C249.115 207.746 260.72 178.314 260.72 142.08H258.72ZM224.464 228.842C201.637 250.956 172.139 262.04 135.88 262.04V264.04C172.581 264.04 202.603 252.804 225.856 230.278L224.464 228.842ZM135.88 262.04C97.2387 262.04 65.2175 249.527 39.7404 224.526L38.3396 225.954C64.2225 251.353 96.7613 264.04 135.88 264.04V262.04ZM39.7471 224.533C14.4976 199.283 1.88 168.579 1.88 132.36H-0.12C-0.12 169.101 12.7024 200.317 38.3329 225.947L39.7471 224.533ZM1.88 132.36C1.88 95.8961 14.3812 65.0712 39.3905 39.8237L37.9696 38.4162C12.5788 64.0488 -0.12 95.3839 -0.12 132.36H1.88ZM39.3871 39.8271C64.6312 14.583 95.8132 1.95998 133 1.95998V-0.0400162C95.3068 -0.0400162 63.6088 12.777 37.9729 38.4129L39.3871 39.8271ZM133 1.95998C156.122 1.95998 177.317 7.20249 196.603 17.6787L197.557 15.9213C177.963 5.27748 156.438 -0.0400162 133 -0.0400162V1.95998ZM196.603 17.6787C215.896 28.1592 231.004 42.3195 241.948 60.1628L243.652 59.1172C232.516 40.9604 217.144 26.5608 197.557 15.9213L196.603 17.6787ZM242.301 58.7736L199.821 83.2536L200.819 84.9864L243.299 60.5064L242.301 58.7736ZM201.185 83.6174C195.076 73.1113 185.806 64.5894 173.428 58.0362L172.492 59.8038C184.594 66.2106 193.564 74.4887 199.455 84.6226L201.185 83.6174ZM173.428 58.0362C161.035 51.4755 147.434 48.2 132.64 48.2V50.2C147.126 50.2 160.405 53.4045 172.492 59.8038L173.428 58.0362ZM132.64 48.2C108.159 48.2 88.09 56.2094 72.5221 72.2639L73.9579 73.6561C89.11 58.0305 108.641 50.2 132.64 50.2V48.2ZM72.5329 72.2529C56.9628 87.8229 49.2 107.888 49.2 132.36H51.2C51.2 108.352 58.7972 88.817 73.9471 73.6671L72.5329 72.2529ZM49.2 132.36C49.2 156.363 57.09 176.304 72.8929 192.107L74.3071 190.693C58.91 175.296 51.2 155.877 51.2 132.36H49.2ZM72.8984 192.113C88.7211 207.692 109.872 215.44 136.24 215.44V213.44C110.288 213.44 89.6789 205.828 74.3016 190.687L72.8984 192.113ZM136.24 215.44C155.348 215.44 171.392 211.206 184.311 202.674L183.209 201.006C170.688 209.274 155.052 213.44 136.24 213.44V215.44ZM184.311 202.674C197.234 194.141 206.013 182.184 210.637 166.849L208.723 166.271C204.227 181.176 195.726 192.739 183.209 201.006L184.311 202.674ZM209.68 165.56H133.36V167.56H209.68V165.56ZM134.36 166.56V122.64H132.36V166.56H134.36ZM299.829 5.63998V4.63998H298.963L298.839 5.49757L299.829 5.63998ZM350.229 5.63998L351.195 5.90046L351.535 4.63998H350.229V5.63998ZM323.229 105.72V106.72H323.995L324.195 105.98L323.229 105.72ZM285.429 105.72L284.439 105.578L284.275 106.72H285.429V105.72ZM299.829 6.63998H350.229V4.63998H299.829V6.63998ZM349.264 5.37952L322.264 105.46L324.195 105.98L351.195 5.90046L349.264 5.37952ZM323.229 104.72H285.429V106.72H323.229V104.72ZM286.419 105.862L300.819 5.7824L298.839 5.49757L284.439 105.578L286.419 105.862ZM513.756 235.68L513.049 234.973L513.756 235.68ZM378.396 235.68L379.103 234.973L378.396 235.68ZM378.396 100.68L379.103 101.387L378.396 100.68ZM513.756 100.68L513.049 101.387L513.756 100.68ZM411.156 203.64L410.431 204.329L410.44 204.338L410.449 204.347L411.156 203.64ZM411.156 132.36L410.449 131.653L410.44 131.662L410.431 131.671L411.156 132.36ZM513.049 234.973C495.005 253.017 472.703 262.04 446.076 262.04V264.04C473.209 264.04 496.027 254.823 514.463 236.387L513.049 234.973ZM446.076 262.04C419.449 262.04 397.147 253.017 379.103 234.973L377.689 236.387C396.125 254.823 418.943 264.04 446.076 264.04V262.04ZM379.103 234.973C361.06 216.929 352.036 194.627 352.036 168H350.036C350.036 195.133 359.253 217.951 377.689 236.387L379.103 234.973ZM352.036 168C352.036 141.615 361.058 119.433 379.103 101.387L377.689 99.9729C359.255 118.407 350.036 141.104 350.036 168H352.036ZM379.103 101.387C397.392 83.0987 419.696 73.96 446.076 73.96V71.96C419.177 71.96 396.361 81.3013 377.689 99.9729L379.103 101.387ZM446.076 73.96C472.457 73.96 494.761 83.0987 513.049 101.387L514.463 99.9729C495.792 81.3013 472.976 71.96 446.076 71.96V73.96ZM513.049 101.387C531.339 119.677 540.476 141.862 540.476 168H542.476C542.476 141.338 533.133 118.643 514.463 99.9729L513.049 101.387ZM540.476 168C540.476 194.381 531.338 216.684 513.049 234.973L514.463 236.387C533.135 217.716 542.476 194.899 542.476 168H540.476ZM410.449 204.347C420.007 213.905 431.906 218.68 446.076 218.68V216.68C432.406 216.68 421.025 212.095 411.863 202.933L410.449 204.347ZM446.076 218.68C460.246 218.68 472.145 213.905 481.703 204.347L480.289 202.933C471.127 212.095 459.746 216.68 446.076 216.68V218.68ZM481.703 204.347C491.268 194.782 496.036 182.64 496.036 168H494.036C494.036 182.16 489.444 193.778 480.289 202.933L481.703 204.347ZM496.036 168C496.036 153.36 491.268 141.218 481.703 131.653L480.289 133.067C489.444 142.222 494.036 153.84 494.036 168H496.036ZM481.703 131.653C472.145 122.095 460.246 117.32 446.076 117.32V119.32C459.746 119.32 471.127 123.905 480.289 133.067L481.703 131.653ZM446.076 117.32C431.906 117.32 420.007 122.095 410.449 131.653L411.863 133.067C421.025 123.905 432.406 119.32 446.076 119.32V117.32ZM410.431 131.671C401.122 141.471 396.476 153.603 396.476 168H398.476C398.476 154.077 402.951 142.449 411.881 133.049L410.431 131.671ZM396.476 168C396.476 182.397 401.122 194.529 410.431 204.329L411.881 202.951C402.951 193.551 398.476 181.923 398.476 168H396.476ZM644.515 198.96L643.582 199.321L644.589 201.923L645.465 199.274L644.515 198.96ZM684.475 78V77H683.752L683.525 77.6863L684.475 78ZM734.155 78L735.095 78.342L735.583 77H734.155V78ZM668.635 258L667.695 257.658L667.694 257.66L668.635 258ZM631.195 314.16L630.601 313.356L630.594 313.361L630.587 313.366L631.195 314.16ZM573.595 330H572.595V330.949L573.543 330.999L573.595 330ZM573.595 286.8L573.615 285.8L572.595 285.78V286.8H573.595ZM603.115 278.88L603.711 279.683L603.115 278.88ZM620.755 252.24L621.698 252.573L621.827 252.207L621.676 251.85L620.755 252.24ZM546.955 78V77H545.445L546.034 78.39L546.955 78ZM597.715 78L598.648 77.6392L598.4 77H597.715V78ZM645.465 199.274L685.425 78.3137L683.525 77.6863L643.565 198.646L645.465 199.274ZM684.475 79H734.155V77H684.475V79ZM733.215 77.658L667.695 257.658L669.575 258.342L735.095 78.342L733.215 77.658ZM667.694 257.66C658.374 283.47 645.988 301.993 630.601 313.356L631.789 314.964C647.602 303.287 660.176 284.37 669.576 258.34L667.694 257.66ZM630.587 313.366C615.451 324.955 596.498 330.191 573.647 329.001L573.543 330.999C596.772 332.209 616.219 326.885 631.803 314.954L630.587 313.366ZM574.595 330V286.8H572.595V330H574.595ZM573.575 287.8C585.966 288.043 596.043 285.372 603.711 279.683L602.519 278.077C595.307 283.428 585.704 286.037 573.615 285.8L573.575 287.8ZM603.711 279.683C611.363 274.006 617.337 264.928 621.698 252.573L619.812 251.907C615.533 264.032 609.747 272.714 602.519 278.077L603.711 279.683ZM621.676 251.85L547.876 77.61L546.034 78.39L619.834 252.63L621.676 251.85ZM546.955 79H597.715V77H546.955V79ZM596.782 78.3608L643.582 199.321L645.448 198.599L598.648 77.6392L596.782 78.3608ZM886.024 99.24L885.241 99.8621L887.024 102.106V99.24H886.024ZM886.024 78V77H885.024V78H886.024ZM932.464 78H933.464V77H932.464V78ZM932.464 258V259H933.464V258H932.464ZM886.024 258H885.024V259H886.024V258ZM886.024 236.76H887.024V233.894L885.241 236.138L886.024 236.76ZM765.424 235.68L764.689 236.358L764.698 236.368L765.424 235.68ZM765.424 100.68L764.694 99.997L764.689 100.002L765.424 100.68ZM800.344 204.72L799.628 205.418L799.637 205.427L800.344 204.72ZM871.624 204.72L872.331 205.427L871.624 204.72ZM871.624 131.64L870.908 132.338L870.917 132.347L870.926 132.356L871.624 131.64ZM800.344 131.64L801.052 132.347L801.06 132.338L800.344 131.64ZM887.024 99.24V78H885.024V99.24H887.024ZM886.024 79H932.464V77H886.024V79ZM931.464 78V258H933.464V78H931.464ZM932.464 257H886.024V259H932.464V257ZM887.024 258V236.76H885.024V258H887.024ZM885.241 236.138C871.537 253.387 852.283 262.04 827.344 262.04V264.04C852.806 264.04 872.672 255.173 886.807 237.382L885.241 236.138ZM827.344 262.04C803.633 262.04 783.251 253.043 766.15 234.992L764.698 236.368C782.157 254.797 803.056 264.04 827.344 264.04V262.04ZM766.16 235.002C749.301 216.719 740.864 194.405 740.864 168H738.864C738.864 194.875 747.468 217.681 764.689 236.358L766.16 235.002ZM740.864 168C740.864 141.837 749.299 119.643 766.16 101.358L764.689 100.002C747.47 118.677 738.864 141.363 738.864 168H740.864ZM766.155 101.363C783.257 83.0729 803.638 73.96 827.344 73.96V71.96C803.051 71.96 782.152 81.3271 764.694 99.997L766.155 101.363ZM827.344 73.96C852.283 73.96 871.537 82.6131 885.241 99.8621L886.807 98.6179C872.672 80.827 852.806 71.96 827.344 71.96V73.96ZM799.637 205.427C809.202 214.992 821.345 219.76 835.984 219.76V217.76C821.824 217.76 810.207 213.168 801.052 204.013L799.637 205.427ZM835.984 219.76C850.624 219.76 862.767 214.992 872.331 205.427L870.917 204.013C861.762 213.168 850.145 217.76 835.984 217.76V219.76ZM872.331 205.427C882.138 195.621 887.024 183.117 887.024 168H885.024C885.024 182.643 880.311 194.619 870.917 204.013L872.331 205.427ZM887.024 168C887.024 152.883 882.138 140.494 872.323 130.924L870.926 132.356C880.311 141.506 885.024 153.357 885.024 168H887.024ZM872.34 130.942C862.777 121.134 850.632 116.24 835.984 116.24V118.24C850.137 118.24 861.752 122.946 870.908 132.338L872.34 130.942ZM835.984 116.24C821.337 116.24 809.192 121.134 799.628 130.942L801.06 132.338C810.217 122.946 821.832 118.24 835.984 118.24V116.24ZM799.637 130.933C790.066 140.504 785.304 152.891 785.304 168H787.304C787.304 153.349 791.903 141.496 801.052 132.347L799.637 130.933ZM785.304 168C785.304 183.11 790.066 195.61 799.628 205.418L801.06 204.022C791.903 194.63 787.304 182.65 787.304 168H785.304Z" fill="black" fill-opacity="0.04"/>
</svg>
