<svg width="32" height="32" viewBox="0 0 32 32" fill="none" xmlns="http://www.w3.org/2000/svg">
<path opacity="0.5" fill-rule="evenodd" clip-rule="evenodd" d="M1 16C1 7.71573 7.71573 1 16 1C24.2843 1 31 7.71573 31 16C31 24.2843 24.2843 31 16 31C7.71573 31 1 24.2843 1 16Z" stroke="white"/>
<path fill-rule="evenodd" clip-rule="evenodd" d="M16.0007 8.5C13.9638 8.5 13.7082 8.50891 12.9082 8.54531C12.1097 8.58188 11.5647 8.70828 11.0878 8.89375C10.5946 9.08531 10.1761 9.34156 9.75923 9.75859C9.34204 10.1755 9.08579 10.5939 8.8936 11.087C8.70766 11.5641 8.58109 12.1092 8.54516 12.9073C8.50938 13.7073 8.5 13.9631 8.5 16C8.5 18.0369 8.50906 18.2917 8.54531 19.0917C8.58203 19.8902 8.70844 20.4352 8.89375 20.912C9.08547 21.4053 9.34173 21.8238 9.75876 22.2406C10.1755 22.6578 10.5939 22.9147 11.0869 23.1063C11.5641 23.2917 12.1093 23.4181 12.9075 23.4547C13.7076 23.4911 13.963 23.5 15.9998 23.5C18.0368 23.5 18.2917 23.4911 19.0917 23.4547C19.8901 23.4181 20.4357 23.2917 20.9129 23.1063C21.4061 22.9147 21.8239 22.6578 22.2406 22.2406C22.6578 21.8238 22.9141 21.4053 23.1062 20.9122C23.2906 20.4352 23.4172 19.89 23.4547 19.0919C23.4906 18.2919 23.5 18.0369 23.5 16C23.5 13.9631 23.4906 13.7075 23.4547 12.9075C23.4172 12.1091 23.2906 11.5641 23.1062 11.0872C22.9141 10.5939 22.6578 10.1755 22.2406 9.75859C21.8234 9.34141 21.4062 9.08516 20.9125 8.89375C20.4343 8.70828 19.889 8.58188 19.0906 8.54531C18.2906 8.50891 18.0359 8.5 15.9984 8.5H16.0007ZM15.3279 9.85154C15.5275 9.85123 15.7504 9.85154 16.0007 9.85154C18.0032 9.85154 18.2405 9.85873 19.0313 9.89467C19.7626 9.9281 20.1595 10.0503 20.4238 10.1529C20.7738 10.2889 21.0234 10.4514 21.2857 10.7139C21.5482 10.9764 21.7107 11.2264 21.847 11.5764C21.9496 11.8404 22.072 12.2373 22.1053 12.9686C22.1412 13.7592 22.149 13.9967 22.149 15.9983C22.149 17.9998 22.1412 18.2373 22.1053 19.0279C22.0718 19.7592 21.9496 20.1561 21.847 20.4201C21.711 20.7701 21.5482 21.0194 21.2857 21.2817C21.0232 21.5442 20.774 21.7067 20.4238 21.8426C20.1598 21.9458 19.7626 22.0676 19.0313 22.1011C18.2407 22.137 18.0032 22.1448 16.0007 22.1448C13.998 22.1448 13.7606 22.137 12.97 22.1011C12.2388 22.0673 11.8419 21.9451 11.5773 21.8425C11.2273 21.7065 10.9773 21.544 10.7148 21.2815C10.4523 21.019 10.2898 20.7697 10.1536 20.4195C10.0509 20.1554 9.92858 19.7586 9.89529 19.0273C9.85936 18.2367 9.85217 17.9992 9.85217 15.9964C9.85217 13.9936 9.85936 13.7573 9.89529 12.9667C9.92873 12.2354 10.0509 11.8386 10.1536 11.5742C10.2895 11.2242 10.4523 10.9742 10.7148 10.7117C10.9773 10.4492 11.2273 10.2867 11.5773 10.1504C11.8417 10.0473 12.2388 9.92545 12.97 9.89185C13.6619 9.8606 13.93 9.85123 15.3279 9.84967V9.85154ZM20.0042 11.0969C19.5073 11.0969 19.1041 11.4995 19.1041 11.9965C19.1041 12.4934 19.5073 12.8965 20.0042 12.8965C20.501 12.8965 20.9042 12.4934 20.9042 11.9965C20.9042 11.4997 20.501 11.0969 20.0042 11.0969ZM16.0007 12.1484C13.8737 12.1484 12.1491 13.8729 12.1491 16C12.1491 18.127 13.8737 19.8508 16.0007 19.8508C18.1278 19.8508 19.8517 18.127 19.8517 16C19.8517 13.8729 18.1278 12.1484 16.0007 12.1484ZM16.0007 13.5C17.3813 13.5 18.5007 14.6192 18.5007 16C18.5007 17.3806 17.3813 18.5 16.0007 18.5C14.6199 18.5 13.5007 17.3806 13.5007 16C13.5007 14.6192 14.6199 13.5 16.0007 13.5Z" fill="white"/>
</svg>
