<svg width="32" height="32" viewBox="0 0 32 32" fill="none" xmlns="http://www.w3.org/2000/svg">
<path opacity="0.5" fill-rule="evenodd" clip-rule="evenodd" d="M1 16C1 7.71573 7.71573 1 16 1C24.2843 1 31 7.71573 31 16C31 24.2843 24.2843 31 16 31C7.71573 31 1 24.2843 1 16Z" stroke="white"/>
<path d="M22.4875 10.0791L9.20041 14.9667C8.29362 15.3141 8.29886 15.7966 9.03404 16.0118L12.4454 17.0269L20.3382 12.2766C20.7114 12.06 21.0524 12.1766 20.7721 12.4139L14.3774 17.919H14.3759L14.3774 17.9198L14.142 21.2739C14.4868 21.2739 14.6389 21.1231 14.8323 20.9451L16.4892 19.4081L19.9358 21.8365C20.5713 22.1703 21.0277 21.9988 21.1858 21.2753L23.4483 11.1043C23.6798 10.2185 23.0938 9.81751 22.4875 10.0791Z" fill="white"/>
</svg>
