<svg width="32" height="32" viewBox="0 0 32 32" fill="none" xmlns="http://www.w3.org/2000/svg">
<path opacity="0.5" fill-rule="evenodd" clip-rule="evenodd" d="M1 16C1 7.71573 7.71573 1 16 1C24.2843 1 31 7.71573 31 16C31 24.2843 24.2843 31 16 31C7.71573 31 1 24.2843 1 16Z" stroke="white"/>
<path fill-rule="evenodd" clip-rule="evenodd" d="M21.8603 11.0859C22.5057 11.2707 23.014 11.8152 23.1865 12.5067C23.5 13.76 23.5 16.375 23.5 16.375C23.5 16.375 23.5 18.9899 23.1865 20.2433C23.014 20.9348 22.5057 21.4793 21.8603 21.6642C20.6907 22 16 22 16 22C16 22 11.3093 22 10.1396 21.6642C9.49418 21.4793 8.98588 20.9348 8.81338 20.2433C8.5 18.9899 8.5 16.375 8.5 16.375C8.5 16.375 8.5 13.76 8.81338 12.5067C8.98588 11.8152 9.49418 11.2707 10.1396 11.0859C11.3093 10.75 16 10.75 16 10.75C16 10.75 20.6907 10.75 21.8603 11.0859ZM14.5938 14.1739V19.0652L18.3438 16.6196L14.5938 14.1739Z" fill="white"/>
</svg>
