<svg width="33" height="32" viewBox="0 0 33 32" fill="none" xmlns="http://www.w3.org/2000/svg">
<ellipse cx="16.5" cy="16.2644" rx="16.5" ry="15.5" fill="white" fill-opacity="0.3"/>
<path d="M19.2796 20.3568L19.5222 20.3871L19.6951 20.2142L21.1628 18.7464C21.1632 18.7461 21.1635 18.7458 21.1639 18.7454C21.2928 18.6185 21.4558 18.5315 21.6331 18.4952C21.8105 18.4588 21.9946 18.4746 22.1632 18.5406C22.1635 18.5407 22.1639 18.5409 22.1642 18.541L23.9506 19.2543C23.951 19.2544 23.9515 19.2546 23.9519 19.2548C24.1216 19.3239 24.2671 19.4417 24.3702 19.5933C24.4731 19.7447 24.5291 19.923 24.5312 20.106V23.3825C24.53 23.5066 24.5038 23.6292 24.4542 23.7429C24.4043 23.8572 24.3319 23.9602 24.2411 24.0457C24.1504 24.1313 24.0434 24.1976 23.9263 24.2406C23.8101 24.2834 23.6865 24.3024 23.5628 24.2964C17.4504 23.9153 13.8154 21.1495 11.6346 18.0033C9.43858 14.835 8.70054 11.2529 8.46548 9.25802C8.4513 9.12883 8.46453 8.99809 8.50432 8.87436C8.54425 8.75017 8.61003 8.63584 8.69731 8.53889C8.7846 8.44195 8.89143 8.36459 9.01077 8.31189C9.1301 8.2592 9.25925 8.23237 9.38969 8.23317L9.38969 8.23318H9.39276H12.5616C12.7445 8.23385 12.923 8.28915 13.0742 8.39197C13.2256 8.49492 13.3427 8.6408 13.4105 8.81086L13.4106 8.81108L14.1259 10.6026L14.1259 10.6027L14.1273 10.606C14.1953 10.773 14.2127 10.9563 14.1772 11.1331C14.1417 11.3097 14.055 11.472 13.9279 11.5997C13.9278 11.5998 13.9277 11.5999 13.9276 11.6L12.4583 13.0693L12.2804 13.2472L12.3172 13.496L12.8118 13.4229C12.3172 13.496 12.3172 13.4962 12.3173 13.4965L12.3174 13.4971L12.3176 13.4989L12.3184 13.5038L12.321 13.52C12.3232 13.5334 12.3264 13.5522 12.3306 13.576C12.3392 13.6236 12.3522 13.6912 12.3706 13.7763C12.4075 13.9464 12.4662 14.1867 12.5549 14.4757C12.7319 15.0527 13.0304 15.831 13.5179 16.6352C14.4981 18.2519 16.2501 19.979 19.2796 20.3568Z" stroke="white" stroke-opacity="0.9"/>
</svg>
